#!OML:ASF F:\VICON\USERDATA\INSTALL\SteveWalk\SteveWalk.ASF
:FULLY-SPECIFIED
:DEGREES
213
root 0.164675 15.9921 -0.352685 16.4752 9.28779 3.07916
lowerback -14.8539 -3.6068 -2.92253
upperback -4.53309 -4.35904 0.820708
thorax 3.78477 -2.1557 1.7238
lowerneck -4.25835 -1.68249 -0.452629
upperneck 8.45259 -2.25432 0.340177
head 3.48455 -1.11806 0.0925766
rclavicle -5.63787e-014 -1.98785e-015
rhumerus -81.7136 -36.1392 -19.8325
rradius 11.5268
rwrist 43.303
rhand -12.6965 -34.3233
rfingers 7.12502
rthumb 13.3857 -63.8733
lclavicle -5.63787e-014 -1.98785e-015
lhumerus -16.0569 -5.43486 81.8672
lradius 50.0029
lwrist 11.6387
lhand -23.0633 -19.2988
lfingers 7.12502
lthumb 3.38201 10.6541
rfemur -48.952 -7.02402 21.829
rtibia 22.2142
rfoot -9.70826 1.45952
rtoes -26.7116
lfemur 1.75299 0.104184 -22.0024
ltibia 20.2912
lfoot -20.854 -12.0316
ltoes -27.0423
214
root 0.178619 15.992 -0.123688 16.4066 9.06211 2.6879
lowerback -14.8582 -3.47015 -2.13765
upperback -4.56586 -4.30073 0.968164
thorax 3.70597 -2.12492 1.45089
lowerneck -4.31766 -1.61312 -0.410244
upperneck 8.42334 -2.13244 -0.0237234
head 3.47984 -1.071 -0.028796
rclavicle 5.43785e-014 -4.37326e-015
rhumerus -81.5564 -36.1158 -19.7466
rradius 11.5844
rwrist 43.5672
rhand -12.6532 -34.7741
rfingers 7.12502
rthumb 13.4275 -64.3214
lclavicle 5.43785e-014 -4.37326e-015
lhumerus -16.6204 -4.98653 82.0094
lradius 50.6922
lwrist 11.5479
lhand -23.35 -19.2456
lfingers 7.12502
lthumb 3.10513 10.7115
rfemur -49.0803 -6.93288 22.376
rtibia 23.533
rfoot -7.15244 2.47146
rtoes -28.9895
lfemur 2.12071 -0.316274 -21.6414
ltibia 21.1389
lfoot -21.109 -10.3473
ltoes -32.9635
215
root 0.177231 15.9951 0.106751 16.4792 8.65539 2.16625
lowerback -14.8525 -3.27358 -1.41618
upperback -4.73884 -4.15535 1.17132
thorax 3.48039 -2.05016 1.29246
lowerneck -4.46129 -1.53057 -0.353475
upperneck 8.64509 -1.99351 -0.386908
head 3.57983 -1.0153 -0.154309
rclavicle 2.05633e-014 1.43125e-014
rhumerus -82.328 -36.4071 -18.0524
rradius 11.5359
rwrist 45.1991
rhand -12.7362 -34.9586
rfingers 7.12502
rthumb 13.3475 -64.5111
lclavicle 2.05633e-014 1.43125e-014
lhumerus -17.3903 -4.46296 82.1676
lradius 51.3207
lwrist 11.3643
lhand -23.3045 -19.3006
lfingers 7.12502
lthumb 3.14906 10.6559
rfemur -49.4862 -5.86316 22.3843
rtibia 25.1787
rfoot -5.2211 3.26178
rtoes -25.3861
lfemur 2.32406 -0.769711 -21.1334
ltibia 21.9673
lfoot -20.215 -10.2619
ltoes -34.1353
216
root 0.177891 15.9901 0.338711 16.7173 8.09154 1.72105
lowerback -15.0349 -3.06185 -0.789025
upperback -4.92346 -3.97283 1.3702
thorax 3.35022 -1.9584 1.17857
lowerneck -4.52988 -1.40553 -0.347259
upperneck 8.66971 -1.7953 -0.726714
head 3.59837 -0.931209 -0.258777
rclavicle 5.98555e-014 4.77083e-015
rhumerus -82.696 -36.6866 -16.8579
rradius 11.4027
rwrist 46.5022
rhand -12.6311 -35.3312
rfingers 7.12502
rthumb 13.4487 -64.877
lclavicle 5.98555e-014 4.77083e-015
lhumerus -18.2481 -3.78848 82.3402
lradius 51.9245
lwrist 11.2411
lhand -23.2045 -19.4547
lfingers 7.12502
lthumb 3.2456 10.5003
rfemur -50.0286 -4.74423 22.3197
rtibia 26.7911
rfoot -4.04137 3.84001
rtoes -20.4328
lfemur 1.97376 -1.03475 -20.7856
ltibia 23.4216
lfoot -18.3543 -11.0372
ltoes -33.2911
217
root 0.183469 15.9814 0.573492 16.813 7.70254 1.52309
lowerback -15.149 -2.9562 -0.339076
upperback -4.97805 -3.90473 1.50693
thorax 3.33222 -1.92487 1.07759
lowerneck -4.74413 -1.21214 -0.368334
upperneck 8.62927 -1.50541 -1.03063
head 3.62452 -0.801332 -0.343424
rclavicle 6.60959e-015 7.95139e-016
rhumerus -83.785 -37.3764 -14.3038
rradius 11.1893
rwrist 48.9174
rhand -12.6898 -35.2856
rfingers 7.12502
rthumb 13.3922 -64.8352
lclavicle 6.60959e-015 7.95139e-016
lhumerus -19.2011 -3.07351 82.4991
lradius 52.6781
lwrist 11.2081
lhand -23.256 -19.3831
lfingers 7.12502
lthumb 3.19585 10.5727
rfemur -50.2559 -3.91524 22.0877
rtibia 28.3377
rfoot -3.4483 3.91058
rtoes -20.2357
lfemur 1.40356 -1.35526 -20.6643
ltibia 25.5956
lfoot -16.0964 -12.0535
ltoes -31.8902
218
root 0.183027 15.9661 0.804957 16.7235 7.41798 1.21165
lowerback -15.0995 -2.86103 0.12644
upperback -4.94282 -3.85613 1.68287
thorax 3.32386 -1.90146 1.01057
lowerneck -5.28846 -1.02659 -0.269879
upperneck 8.8384 -1.22115 -1.43905
head 3.80327 -0.677182 -0.488522
rclavicle 2.40809e-014 -3.97569e-016
rhumerus -86.7529 -38.5261 -8.75265
rradius 10.863
rwrist 53.7479
rhand -13.0288 -34.5509
rfingers 7.12502
rthumb 13.0654 -64.1217
lclavicle 2.40809e-014 -3.97569e-016
lhumerus -20.0955 -2.42293 82.6651
lradius 53.346
lwrist 11.1704
lhand -23.3149 -19.1872
lfingers 7.12502
lthumb 3.13896 10.7694
rfemur -50.215 -2.75108 21.805
rtibia 29.9727
rfoot -3.71198 3.26326
rtoes -24.2986
lfemur 0.831957 -1.7147 -20.3345
ltibia 28.1994
lfoot -13.5374 -12.9866
ltoes -29.9993
